<?xml version="1.0" standalone="no"?>
<!DOCTYPE svg PUBLIC "-//W3C//DTD SVG 20010904//EN"
 "http://www.w3.org/TR/2001/REC-SVG-20010904/DTD/svg10.dtd">
<svg version="1.0" xmlns="http://www.w3.org/2000/svg"
 width="218.000000pt" height="231.000000pt" viewBox="0 0 218.000000 231.000000"
 preserveAspectRatio="xMidYMid meet">

<g transform="translate(0.000000,231.000000) scale(0.100000,-0.100000)"
fill="#000000" stroke="none">
<path d="M235 2296 c-22 -7 -54 -20 -71 -29 -43 -22 -112 -100 -137 -155 -22
-46 -22 -57 -22 -487 l0 -440 27 -55 c48 -97 131 -160 240 -181 l58 -12 -5
-61 c-22 -236 -24 -321 -9 -343 30 -46 51 -33 311 191 l249 214 319 4 320 3
55 26 c66 31 131 94 162 157 23 47 23 50 26 481 3 488 3 490 -68 580 -28 35
-59 59 -107 83 l-68 33 -620 2 c-481 2 -629 -1 -660 -11z m1315 -128 c41 -25
60 -45 80 -83 l25 -49 3 -381 c4 -430 1 -459 -55 -525 -67 -78 -74 -80 -440
-80 l-322 0 -208 -179 c-114 -99 -209 -178 -211 -176 -2 2 1 74 7 161 14 193
16 189 -99 196 -93 5 -142 32 -187 100 l-28 42 -3 410 c-2 279 0 423 8 449 14
49 65 106 115 128 37 17 82 19 650 19 l611 0 54 -32z"/>
<path d="M452 1854 c-27 -18 -29 -55 -4 -77 17 -15 62 -17 436 -17 269 0 424
4 437 10 27 15 25 64 -3 84 -19 14 -78 16 -433 16 -355 0 -414 -2 -433 -16z"/>
<path d="M452 1584 c-27 -18 -29 -55 -4 -77 16 -15 54 -17 325 -17 l307 0 16
25 c20 30 10 63 -23 76 -13 5 -154 9 -311 9 -244 0 -291 -2 -310 -16z"/>
<path d="M1920 1378 c0 -368 -2 -406 -19 -443 -27 -60 -67 -103 -125 -133
l-51 -27 -377 -3 -377 -3 -151 -157 -151 -157 319 -3 318 -2 254 -225 c140
-124 261 -225 270 -225 9 0 24 8 33 18 17 19 16 64 -8 355 l-6 67 43 0 c95 0
214 86 262 189 20 45 21 58 21 486 l0 440 -27 51 c-15 28 -39 65 -53 82 -25
30 -134 92 -162 92 -11 0 -13 -73 -13 -402z"/>
</g>
</svg>
