<?xml version="1.0" standalone="no"?>
<!DOCTYPE svg PUBLIC "-//W3C//DTD SVG 20010904//EN"
 "http://www.w3.org/TR/2001/REC-SVG-20010904/DTD/svg10.dtd">
<svg version="1.0" xmlns="http://www.w3.org/2000/svg"
 width="256.000000pt" height="256.000000pt" viewBox="0 0 256.000000 256.000000"
 preserveAspectRatio="xMidYMid meet">

<g transform="translate(0.000000,256.000000) scale(0.100000,-0.100000)"
fill="#000000" stroke="none">
<path d="M1092 2385 c-108 -19 -211 -54 -320 -109 -487 -245 -727 -820 -557
-1339 43 -133 129 -286 212 -378 l35 -39 -58 -60 c-32 -33 -95 -84 -141 -113
-98 -61 -115 -89 -90 -142 10 -21 26 -37 41 -41 14 -3 128 -4 253 -2 228 4
228 4 322 37 l93 33 92 -26 c131 -37 234 -49 366 -43 274 14 516 118 716 309
228 218 346 494 346 808 0 314 -118 590 -348 809 -147 141 -301 225 -503 278
-123 31 -334 40 -459 18z m361 -160 c199 -35 366 -122 513 -269 269 -270 354
-650 224 -1009 -91 -251 -316 -476 -567 -567 -216 -78 -449 -79 -666 -3 l-79
27 -46 -18 c-129 -50 -162 -59 -247 -64 l-89 -5 43 49 c55 63 101 142 101 175
0 18 -19 48 -61 95 -109 124 -186 269 -226 430 -24 95 -24 333 0 428 126 502
601 818 1100 731z"/>
<path d="M720 1667 c-49 -16 -133 -102 -148 -153 -16 -56 -16 -412 0 -468 16
-55 99 -138 154 -154 57 -17 571 -17 628 0 55 16 138 99 154 154 7 23 12 72
12 110 0 63 1 67 14 48 24 -34 360 -244 390 -244 15 0 38 11 51 25 l25 24 0
271 0 271 -25 24 c-42 43 -67 34 -245 -80 -91 -58 -175 -115 -187 -127 l-23
-21 0 74 c0 85 -20 137 -70 187 -67 67 -64 67 -395 69 -200 1 -312 -2 -335
-10z m615 -172 c25 -24 25 -26 25 -215 0 -189 0 -191 -25 -215 l-24 -25 -271
0 -271 0 -24 25 c-25 24 -25 26 -25 215 0 189 0 191 25 215 l24 25 271 0 271
0 24 -25z m503 -260 l-3 -44 -67 42 c-38 23 -68 44 -68 47 0 3 30 24 68 47
l67 42 3 -44 c2 -25 2 -65 0 -90z"/>
</g>
</svg>
